<svg width="58" height="58" viewBox="0 0 58 58" xmlns="http://www.w3.org/2000/svg"><title>Group 2</title><g fill="none" fill-rule="evenodd"><path d="M8 7a1 1 0 1 1-2 0 1 1 0 0 1 2 0M11 4a1 1 0 1 1-2 0 1 1 0 0 1 2 0M5 10a1 1 0 1 1-2 0 1 1 0 0 1 2 0M12 8a1 1 0 1 1-2 0 1 1 0 0 1 2 0M15 5a1 1 0 1 1-2 0 1 1 0 0 1 2 0M18 2a1 1 0 1 1-2 0 1 1 0 0 1 2 0M18 8a1 1 0 1 1-2 0 1 1 0 0 1 2 0M21 5a1 1 0 1 1-2 0 1 1 0 0 1 2 0M24 8a1 1 0 1 1-2 0 1 1 0 0 1 2 0M9 11a1 1 0 1 1-2 0 1 1 0 0 1 2 0M15 11a1 1 0 1 1-2 0 1 1 0 0 1 2 0M21 11a1 1 0 1 1-2 0 1 1 0 0 1 2 0M6 14a1 1 0 1 1-2 0 1 1 0 0 1 2 0M6 20a1 1 0 1 1-2 0 1 1 0 0 1 2 0M9 17a1 1 0 1 1-2 0 1 1 0 0 1 2 0M12 14a1 1 0 1 1-2 0 1 1 0 0 1 2 0M12 20a1 1 0 1 1-2 0 1 1 0 0 1 2 0M15 17a1 1 0 1 1-2 0 1 1 0 0 1 2 0M18 14a1 1 0 1 1-2 0 1 1 0 0 1 2 0M18 20a1 1 0 1 1-2 0 1 1 0 0 1 2 0M21 17a1 1 0 1 1-2 0 1 1 0 0 1 2 0M24 14a1 1 0 1 1-2 0 1 1 0 0 1 2 0M9 23a1 1 0 1 1-2 0 1 1 0 0 1 2 0M15 23a1 1 0 1 1-2 0 1 1 0 0 1 2 0" fill="#FFF"/><path stroke="#FFF" stroke-width="2" stroke-linecap="round" stroke-linejoin="round" d="M29 32l-1-1v-2l1-1h2l1 1v2l-1 1zM36 39l-1-1v-2l1-1h2l1 1v2l-1 1zM35 53l-1-1v-2l1-1h2l1 1v2l-1 1z"/><path d="M44.345 50.709l6.364-6.364-6.364 6.364zm2.829 2.828l6.363-6.363-6.363 6.363zm8.84-4.323L29.015 19.551a14.258 14.258 0 0 1-3.555 5.903 14.24 14.24 0 0 1-6.889 3.811l30.643 26.749a4.14 4.14 0 0 0 5.609-.227l.964-.964a4.14 4.14 0 0 0 .227-5.609zM26.378 6.207c-.288-.349-.591-.69-.918-1.016-5.595-5.596-14.668-5.596-20.263 0-5.596 5.595-5.596 14.668 0 20.263.259.259.532.494.806.728 5.304.311 10.712-1.539 14.765-5.592 3.956-3.956 5.812-9.202 5.61-14.383z" stroke="#FFF" stroke-width="2" stroke-linecap="round" stroke-linejoin="round"/><path d="M26.378 6.207c.202 5.181-1.654 10.427-5.61 14.383-4.053 4.053-9.461 5.903-14.765 5.592 5.629 4.843 14.121 4.609 19.457-.728 5.269-5.269 5.573-13.619.918-19.247z" stroke="#FFF" stroke-width="2" stroke-linecap="round" stroke-linejoin="round"/></g></svg>