<svg width="60" height="59" viewBox="0 0 60 59" xmlns="http://www.w3.org/2000/svg"><title>Group 2</title><g fill="none" fill-rule="evenodd"><path d="M52.455 58H7.512a.63.63 0 0 1-.62-.52L1.001 16.098A.084.084 0 0 1 1.084 16h57.8c.052 0 .092.047.083.098L53.076 57.48a.63.63 0 0 1-.621.52zm3.929-42l.544-4.44a.509.509 0 0 0-.507-.56H3.547a.509.509 0 0 0-.507.56L3.584 16h52.8zm-3.4-5V6.49a.49.49 0 0 0-.49-.49H7.474a.49.49 0 0 0-.49.49V11h46zm-4-5V1.49a.49.49 0 0 0-.49-.49h-37.02a.49.49 0 0 0-.49.49V6h38zm0 31c0 8.837-8.731 16-19.5 16-10.77 0-19.5-7.163-19.5-16s8.73-16 19.5-16c10.769 0 19.5 7.163 19.5 16zm-29.86-8.751c2.87-2.075 6.464-3.31 10.36-3.31m-7.926 6.285c2.195-1.588 4.945-2.534 7.926-2.534m-5.515 5.525a9.34 9.34 0 0 1 5.515-1.774m10.451 13.498c-2.871 2.075-6.465 3.31-10.361 3.31m7.926-6.285c-2.195 1.588-4.945 2.534-7.926 2.534m5.515-5.525a9.336 9.336 0 0 1-5.515 1.774" stroke="#FFF" stroke-width="2" stroke-linecap="round" stroke-linejoin="round"/><path d="M32.207 36.985c0 .932-1.042 1.688-2.327 1.688s-2.327-.756-2.327-1.688c0-.933 1.042-1.689 2.327-1.689s2.327.756 2.327 1.689" fill="#FFF"/></g></svg>