<svg width="60" height="60" viewBox="0 0 60 60" xmlns="http://www.w3.org/2000/svg"><title>Group 2</title><g fill="none" fill-rule="evenodd"><path d="M59 49H1V4.503A3.503 3.503 0 0 1 4.503 1h50.994A3.503 3.503 0 0 1 59 4.503V49z" fill="#FFF"/><path d="M59 49H1V4.503A3.503 3.503 0 0 1 4.503 1h50.994A3.503 3.503 0 0 1 59 4.503V49z" stroke="#0096E6" stroke-width="2" stroke-linecap="round"/><path d="M1 49v6.497A3.503 3.503 0 0 0 4.503 59h50.994A3.503 3.503 0 0 0 59 55.497V49H1z" fill="#FFF"/><path d="M1 49v6.497A3.503 3.503 0 0 0 4.503 59h50.994A3.503 3.503 0 0 0 59 55.497V49H1z" stroke="#0096E6" stroke-width="2" stroke-linecap="round"/><path fill="#D0E8F9" d="M6 56l-1-1v-2l1-1h2l1 1v2l-1 1z"/><path stroke="#0096E6" stroke-width="2" stroke-linecap="round" stroke-linejoin="round" d="M6 56l-1-1v-2l1-1h2l1 1v2l-1 1z"/><path fill="#D0E8F9" d="M13 56l-1-1v-2l1-1h2l1 1v2l-1 1z"/><path stroke="#0096E6" stroke-width="2" stroke-linecap="round" stroke-linejoin="round" d="M13 56l-1-1v-2l1-1h2l1 1v2l-1 1z"/><path fill="#D0E8F9" d="M20 56l-1-1v-2l1-1h2l1 1v2l-1 1z"/><path stroke="#0096E6" stroke-width="2" stroke-linecap="round" stroke-linejoin="round" d="M20 56l-1-1v-2l1-1h2l1 1v2l-1 1z"/><path fill="#D0E8F9" d="M27 56l-1-1v-2l1-1h2l1 1v2l-1 1z"/><path stroke="#0096E6" stroke-width="2" stroke-linecap="round" stroke-linejoin="round" d="M27 56l-1-1v-2l1-1h2l1 1v2l-1 1z"/><path d="M52 41v5-5zm0-6v3-3zm3-27a3 3 0 1 1-6 0 3 3 0 0 1 6 0z" stroke="#0096E6" stroke-width="2" stroke-linecap="round"/><path d="M34 25a9 9 0 0 1-9 9 9 9 0 0 1-9-9 9 9 0 0 1 9-9 9 9 0 0 1 9 9z" fill="#D0E8F9"/><path d="M34 25a9 9 0 0 1-9 9 9 9 0 0 1-9-9 9 9 0 0 1 9-9 9 9 0 0 1 9 9z" stroke="#0096E6" stroke-width="2" stroke-linecap="round"/><path d="M29 25a4 4 0 1 1-8 0 4 4 0 0 1 8 0z" fill="#FFF"/><path d="M29 25a4 4 0 1 1-8 0 4 4 0 0 1 8 0zM49 38h6v3h-6z" stroke="#0096E6" stroke-width="2" stroke-linecap="round"/><path fill="#D0E8F9" d="M42.136 38.692l-2.828-2.828 4.949-4.95 2.829 2.829z"/><path stroke="#0096E6" stroke-width="2" stroke-linecap="round" d="M42.136 38.692l-2.828-2.828 4.949-4.95 2.829 2.829z"/><path d="M45.672 32.328L52 26V8M39.308 35.864l4.722-4.722c.624-1.936.97-3.998.97-6.142 0-11.046-8.954-20-20-20S5 13.954 5 25s8.954 20 20 20c6.401 0 12.086-3.019 15.746-7.697l-1.438-1.439z" stroke="#0096E6" stroke-width="2" stroke-linecap="round"/></g></svg>