<?xml version="1.0" standalone="no"?><!DOCTYPE svg PUBLIC "-//W3C//DTD SVG 1.1//EN" "http://www.w3.org/Graphics/SVG/1.1/DTD/svg11.dtd">
<svg class="h-8 fill-current lg:h-11" fill="currentColor" viewBox="0 0 330 75" version="1.1" 
    xmlns="http://www.w3.org/2000/svg" 
    xmlns:xlink="http://www.w3.org/1999/xlink" style="height:156.125px;width:687px;perspective-origin:343.5px 78.0625px;transform-origin:343.5px 78.0625px;">
    <path d="M35.27 10l-8.73 5-8.73 5-8.73 5v30l8.73-5 8.73-5V35l-8.73 5V30l8.73-5 8.73-5v30l-8.73 5-8.73 5-8.73 5-8.73 5 8.73 5 8.73-5 8.73-5 8.73-5L44 55V5l-8.73-5z"/>
    <path fill-rule="nonzero" d="M88.45 20.91H96v30.06c0 4.88-1.53 8.6-4.58 11.17A16.6 16.6 0 0180.37 66c-2.94.07-5.86-.6-8.51-1.95a13.3 13.3 0 01-5.65-5.75l6.56-4c1.52 2.96 4.13 4.44 7.84 4.44 2.44 0 4.35-.67 5.75-2.02 1.4-1.35 2.1-3.27 2.1-5.76v-3.42c-2.28 3.2-5.47 4.8-9.58 4.8-4.01.1-7.87-1.62-10.6-4.7A16.44 16.44 0 0164 36.15a16.39 16.39 0 014.3-11.42A13.73 13.73 0 0178.88 20c4.1 0 7.3 1.6 9.57 4.8v-3.89zm-14.4 21.47a8.66 8.66 0 0012.04 0 8.56 8.56 0 002.36-6.22A8.48 8.48 0 0086.1 30a8.66 8.66 0 00-12.03 0 8.48 8.48 0 00-2.37 6.16 8.56 8.56 0 002.37 6.22z"/>
    <path d="M108.8 25.83a8.17 8.17 0 013.6-4.37c1.7-.98 3.64-1.48 5.6-1.46v8.73a9.18 9.18 0 00-6.39 1.47c-1.88 1.25-2.82 3.34-2.82 6.26V51H101V20.63h7.8v5.2z"/>
    <path fill-rule="nonzero" d="M144.3 20.87h7.7v30.26h-7.7v-3.56c-2.32 2.95-5.57 4.43-9.77 4.43a13.47 13.47 0 01-10.25-4.63A16.14 16.14 0 01120.01 36c-.11-4.2 1.42-8.3 4.27-11.37A13.47 13.47 0 01134.53 20c4.2 0 7.45 1.48 9.77 4.43v-3.56zm-14.26 21.29a7.93 7.93 0 005.93 2.4c2.23.06 4.39-.8 5.96-2.4A8.4 8.4 0 00144.3 36a8.4 8.4 0 00-2.37-6.16 8.03 8.03 0 00-5.96-2.4 7.93 7.93 0 00-5.93 2.4A8.45 8.45 0 00127.7 36a8.45 8.45 0 002.34 6.16z"/>
    <path fill-rule="nonzero" d="M174.4 20c3.94-.04 7.7 1.68 10.32 4.72a16.6 16.6 0 014.27 11.57 16.6 16.6 0 01-4.27 11.58 13.43 13.43 0 01-10.31 4.71c-4.2 0-7.43-1.5-9.71-4.5V64H157V20.89h7.7v3.62c2.28-3 5.51-4.5 9.7-4.5zm-7.36 22.56a7.85 7.85 0 005.93 2.44 7.95 7.95 0 005.96-2.44 8.64 8.64 0 002.37-6.27 8.64 8.64 0 00-2.37-6.27 7.95 7.95 0 00-5.96-2.44 7.86 7.86 0 00-5.93 2.44 8.7 8.7 0 00-2.34 6.27 8.7 8.7 0 002.34 6.27z"/>
    <path d="M211.27 19.65c3.16-.1 6.21 1.16 8.4 3.46 2.22 2.31 3.33 5.5 3.33 9.57V52h-8V33.67c0-2.1-.56-3.7-1.68-4.81a6.08 6.08 0 00-4.48-1.67 6.57 6.57 0 00-4.98 1.95c-1.24 1.3-1.87 3.25-1.87 5.86v17H194V8h8v16.05c1.95-2.93 5.04-4.4 9.27-4.4z"/>
    <path d="M243.75 52c-4.46.1-8.77-1.56-11.93-4.58A15.38 15.38 0 01227 36a16.01 16.01 0 018.46-13.87 17.42 17.42 0 0116.75.04 13.06 13.06 0 015.47 5.83l-3.43 1.89a9.64 9.64 0 00-4.1-4.37 12.65 12.65 0 00-6.4-1.62 12.3 12.3 0 00-8.9 3.52 11.5 11.5 0 00-3.63 8.58 11.5 11.5 0 003.63 8.58c2.71 2.7 6.6 4 10.47 3.5 3.88-.48 7.28-2.7 9.18-5.97l3.5 1.95a14.38 14.38 0 01-5.79 5.8 17.03 17.03 0 01-8.46 2.14z"/>
    <path d="M293.57 20c3.1-.12 6.11 1.07 8.28 3.28 2.1 2.18 3.15 5.12 3.15 8.83V51h-4.05V32.11c0-2.62-.68-4.65-2.05-6.08a7.1 7.1 0 00-5.4-2.15 8 8 0 00-6.13 2.51c-1.56 1.68-2.34 4.29-2.34 7.84V51h-4.06V32.11c0-2.66-.64-4.7-1.92-6.11a6.69 6.69 0 00-5.21-2.12 8.5 8.5 0 00-6.23 2.54c-1.7 1.7-2.56 4.3-2.56 7.8V51H261V20.73h4.05v4.42A10.47 10.47 0 01274.4 20c4.4 0 7.5 1.83 9.29 5.5 2.2-3.67 5.49-5.5 9.89-5.5z"/>
    <path d="M311.3 28.65a3.67 3.67 0 001.93 3.25c1.45.88 3.04 1.54 4.7 1.96l5.51 1.5c1.79.48 3.4 1.42 4.66 2.72a7.06 7.06 0 011.9 5.14 7.6 7.6 0 01-3.26 6.34c-2.16 1.63-4.95 2.44-8.38 2.43-2.76.08-5.48-.6-7.85-1.96a10.6 10.6 0 01-4.51-5.07l3.6-2a7.24 7.24 0 003.23 3.75c1.67.95 3.6 1.43 5.54 1.38 1.83.07 3.64-.34 5.25-1.18a3.95 3.95 0 002.11-3.69c.03-1.34-.7-2.6-1.9-3.29a17 17 0 00-4.68-1.97l-5.52-1.5c-1.78-.48-3.4-1.4-4.68-2.69a6.82 6.82 0 01-1.92-5.05 7.69 7.69 0 013.13-6.22 12.16 12.16 0 017.86-2.5c2.4-.04 4.78.54 6.86 1.7a10.5 10.5 0 014.36 4.54l-3.55 1.95c-1.23-2.85-3.8-4.28-7.67-4.28a8.8 8.8 0 00-4.74 1.23 3.92 3.92 0 00-1.99 3.51z"/>
</svg>