<?xml version="1.0" standalone="no"?><!DOCTYPE svg PUBLIC "-//W3C//DTD SVG 1.1//EN" "http://www.w3.org/Graphics/SVG/1.1/DTD/svg11.dtd">
<svg class="h-8 fill-current lg:h-11" fill="currentColor" viewBox="0 0 330 75" version="1.1" 
    xmlns="http://www.w3.org/2000/svg" 
    xmlns:xlink="http://www.w3.org/1999/xlink" style="height:156.125px;width:687px;perspective-origin:343.5px 78.0625px;transform-origin:343.5px 78.0625px;">
    <path d="M35.27 10l-8.73 5-8.73 5-8.73 5v30l8.73-5 8.73-5V35l-8.73 5V30l8.73-5 8.73-5v30l-8.73 5-8.73 5-8.73 5-8.73 5 8.73 5 8.73-5 8.73-5 8.73-5L44 55V5l-8.73-5z" style="height:auto;overflow-x:visible;overflow-y:visible;width:auto;perspective-origin:0px 0px;transform-origin:0px 0px;d:path(&quot;M 35.27 10 L 26.54 15 L 17.81 20 L 9.08 25 V 55 L 17.81 50 L 26.54 45 V 35 L 17.81 40 V 30 L 26.54 25 L 35.27 20 V 50 L 26.54 55 L 17.81 60 L 9.08 65 L 0.350002 70 L 9.08 75 L 17.81 70 L 26.54 65 L 35.27 60 L 44 55 V 5 L 35.27 0 Z&quot;);"/>
    <path fill-rule="nonzero" d="M88.45 20.91H96v30.06c0 4.88-1.53 8.6-4.58 11.17A16.6 16.6 0 0180.37 66c-2.94.07-5.86-.6-8.51-1.95a13.3 13.3 0 01-5.65-5.75l6.56-4c1.52 2.96 4.13 4.44 7.84 4.44 2.44 0 4.35-.67 5.75-2.02 1.4-1.35 2.1-3.27 2.1-5.76v-3.42c-2.28 3.2-5.47 4.8-9.58 4.8-4.01.1-7.87-1.62-10.6-4.7A16.44 16.44 0 0164 36.15a16.39 16.39 0 014.3-11.42A13.73 13.73 0 0178.88 20c4.1 0 7.3 1.6 9.57 4.8v-3.89zm-14.4 21.47a8.66 8.66 0 0012.04 0 8.56 8.56 0 002.36-6.22A8.48 8.48 0 0086.1 30a8.66 8.66 0 00-12.03 0 8.48 8.48 0 00-2.37 6.16 8.56 8.56 0 002.37 6.22z" style="height:auto;overflow-x:visible;overflow-y:visible;width:auto;perspective-origin:0px 0px;transform-origin:0px 0px;d:path(&quot;M 88.45 20.91 H 96 V 50.97 C 96 55.85 94.47 59.57 91.42 62.14 A 16.6 16.6 0 0 1 80.37 66 C 77.43 66.07 74.51 65.4 71.86 64.05 A 13.3 13.3 0 0 1 66.21 58.3 L 72.77 54.3 C 74.29 57.26 76.9 58.74 80.61 58.74 C 83.05 58.74 84.96 58.07 86.36 56.72 C 87.76 55.37 88.46 53.45 88.46 50.96 V 47.54 C 86.18 50.74 82.99 52.34 78.88 52.34 C 74.87 52.44 71.01 50.72 68.28 47.64 A 16.44 16.44 0 0 1 64 36.15 A 16.39 16.39 0 0 1 68.3 24.73 A 13.73 13.73 0 0 1 78.88 20 C 82.98 20 86.18 21.6 88.45 24.8 V 20.91 Z M 74.05 42.38 A 8.66 8.66 0 0 0 86.09 42.38 A 8.56 8.56 0 0 0 88.45 36.16 A 8.48 8.48 0 0 0 86.1 30 A 8.66 8.66 0 0 0 74.07 30 A 8.48 8.48 0 0 0 71.7 36.16 A 8.56 8.56 0 0 0 74.07 42.38 Z&quot;);"/>
    <path d="M108.8 25.83a8.17 8.17 0 013.6-4.37c1.7-.98 3.64-1.48 5.6-1.46v8.73a9.18 9.18 0 00-6.39 1.47c-1.88 1.25-2.82 3.34-2.82 6.26V51H101V20.63h7.8v5.2z" style="height:auto;overflow-x:visible;overflow-y:visible;width:auto;perspective-origin:0px 0px;transform-origin:0px 0px;d:path(&quot;M 108.8 25.83 A 8.17 8.17 0 0 1 112.4 21.46 C 114.1 20.48 116.04 19.98 118 20 V 28.73 A 9.18 9.18 0 0 0 111.61 30.2 C 109.73 31.45 108.79 33.54 108.79 36.46 V 51 H 101 V 20.63 H 108.8 V 25.83 Z&quot;);"/>
    <path fill-rule="nonzero" d="M144.3 20.87h7.7v30.26h-7.7v-3.56c-2.32 2.95-5.57 4.43-9.77 4.43a13.47 13.47 0 01-10.25-4.63A16.14 16.14 0 01120.01 36c-.11-4.2 1.42-8.3 4.27-11.37A13.47 13.47 0 01134.53 20c4.2 0 7.45 1.48 9.77 4.43v-3.56zm-14.26 21.29a7.93 7.93 0 005.93 2.4c2.23.06 4.39-.8 5.96-2.4A8.4 8.4 0 00144.3 36a8.4 8.4 0 00-2.37-6.16 8.03 8.03 0 00-5.96-2.4 7.93 7.93 0 00-5.93 2.4A8.45 8.45 0 00127.7 36a8.45 8.45 0 002.34 6.16z" style="height:auto;overflow-x:visible;overflow-y:visible;width:auto;perspective-origin:0px 0px;transform-origin:0px 0px;d:path(&quot;M 144.3 20.87 H 152 V 51.13 H 144.3 V 47.57 C 141.98 50.52 138.73 52 134.53 52 A 13.47 13.47 0 0 1 124.28 47.37 A 16.14 16.14 0 0 1 120.01 36 C 119.9 31.8 121.43 27.7 124.28 24.63 A 13.47 13.47 0 0 1 134.53 20 C 138.73 20 141.98 21.48 144.3 24.43 V 20.87 Z M 130.04 42.16 A 7.93 7.93 0 0 0 135.97 44.56 C 138.2 44.62 140.36 43.76 141.93 42.16 A 8.4 8.4 0 0 0 144.3 36 A 8.4 8.4 0 0 0 141.93 29.84 A 8.03 8.03 0 0 0 135.97 27.44 A 7.93 7.93 0 0 0 130.04 29.84 A 8.45 8.45 0 0 0 127.7 36 A 8.45 8.45 0 0 0 130.04 42.16 Z&quot;);"/>
    <path fill-rule="nonzero" d="M174.4 20c3.94-.04 7.7 1.68 10.32 4.72a16.6 16.6 0 014.27 11.57 16.6 16.6 0 01-4.27 11.58 13.43 13.43 0 01-10.31 4.71c-4.2 0-7.43-1.5-9.71-4.5V64H157V20.89h7.7v3.62c2.28-3 5.51-4.5 9.7-4.5zm-7.36 22.56a7.85 7.85 0 005.93 2.44 7.95 7.95 0 005.96-2.44 8.64 8.64 0 002.37-6.27 8.64 8.64 0 00-2.37-6.27 7.95 7.95 0 00-5.96-2.44 7.86 7.86 0 00-5.93 2.44 8.7 8.7 0 00-2.34 6.27 8.7 8.7 0 002.34 6.27z" style="height:auto;overflow-x:visible;overflow-y:visible;width:auto;perspective-origin:0px 0px;transform-origin:0px 0px;d:path(&quot;M 174.4 20 C 178.34 19.96 182.1 21.68 184.72 24.72 A 16.6 16.6 0 0 1 188.99 36.29 A 16.6 16.6 0 0 1 184.72 47.87 A 13.43 13.43 0 0 1 174.41 52.58 C 170.21 52.58 166.98 51.08 164.7 48.08 V 64 H 157 V 20.89 H 164.7 V 24.51 C 166.98 21.51 170.21 20.01 174.4 20.01 Z M 167.04 42.56 A 7.85 7.85 0 0 0 172.97 45 A 7.95 7.95 0 0 0 178.93 42.56 A 8.64 8.64 0 0 0 181.3 36.29 A 8.64 8.64 0 0 0 178.93 30.02 A 7.95 7.95 0 0 0 172.97 27.58 A 7.86 7.86 0 0 0 167.04 30.02 A 8.7 8.7 0 0 0 164.7 36.29 A 8.7 8.7 0 0 0 167.04 42.56 Z&quot;);"/>
    <path d="M211.27 19.65c3.16-.1 6.21 1.16 8.4 3.46 2.22 2.31 3.33 5.5 3.33 9.57V52h-8V33.67c0-2.1-.56-3.7-1.68-4.81a6.08 6.08 0 00-4.48-1.67 6.57 6.57 0 00-4.98 1.95c-1.24 1.3-1.87 3.25-1.87 5.86v17H194V8h8v16.05c1.95-2.93 5.04-4.4 9.27-4.4z" style="height:auto;overflow-x:visible;overflow-y:visible;width:auto;perspective-origin:0px 0px;transform-origin:0px 0px;d:path(&quot;M 211.27 19.65 C 214.43 19.55 217.48 20.81 219.67 23.11 C 221.89 25.42 223 28.61 223 32.68 V 52 H 215 V 33.67 C 215 31.57 214.44 29.97 213.32 28.86 A 6.08 6.08 0 0 0 208.84 27.19 A 6.57 6.57 0 0 0 203.86 29.14 C 202.62 30.44 201.99 32.39 201.99 35 V 52 H 194 V 8 H 202 V 24.05 C 203.95 21.12 207.04 19.65 211.27 19.65 Z&quot;);"/>
    <path d="M243.75 52c-4.46.1-8.77-1.56-11.93-4.58A15.38 15.38 0 01227 36a16.01 16.01 0 018.46-13.87 17.42 17.42 0 0116.75.04 13.06 13.06 0 015.47 5.83l-3.43 1.89a9.64 9.64 0 00-4.1-4.37 12.65 12.65 0 00-6.4-1.62 12.3 12.3 0 00-8.9 3.52 11.5 11.5 0 00-3.63 8.58 11.5 11.5 0 003.63 8.58c2.71 2.7 6.6 4 10.47 3.5 3.88-.48 7.28-2.7 9.18-5.97l3.5 1.95a14.38 14.38 0 01-5.79 5.8 17.03 17.03 0 01-8.46 2.14z" style="height:auto;overflow-x:visible;overflow-y:visible;width:auto;perspective-origin:0px 0px;transform-origin:0px 0px;d:path(&quot;M 243.75 52 C 239.29 52.1 234.98 50.44 231.82 47.42 A 15.38 15.38 0 0 1 227 36 A 16.01 16.01 0 0 1 235.46 22.13 A 17.42 17.42 0 0 1 252.21 22.17 A 13.06 13.06 0 0 1 257.68 28 L 254.25 29.89 A 9.64 9.64 0 0 0 250.15 25.52 A 12.65 12.65 0 0 0 243.75 23.9 A 12.3 12.3 0 0 0 234.85 27.42 A 11.5 11.5 0 0 0 231.22 36 A 11.5 11.5 0 0 0 234.85 44.58 C 237.56 47.28 241.45 48.58 245.32 48.08 C 249.2 47.6 252.6 45.38 254.5 42.11 L 258 44.06 A 14.38 14.38 0 0 1 252.21 49.86 A 17.03 17.03 0 0 1 243.75 52 Z&quot;);"/>
    <path d="M293.57 20c3.1-.12 6.11 1.07 8.28 3.28 2.1 2.18 3.15 5.12 3.15 8.83V51h-4.05V32.11c0-2.62-.68-4.65-2.05-6.08a7.1 7.1 0 00-5.4-2.15 8 8 0 00-6.13 2.51c-1.56 1.68-2.34 4.29-2.34 7.84V51h-4.06V32.11c0-2.66-.64-4.7-1.92-6.11a6.69 6.69 0 00-5.21-2.12 8.5 8.5 0 00-6.23 2.54c-1.7 1.7-2.56 4.3-2.56 7.8V51H261V20.73h4.05v4.42A10.47 10.47 0 01274.4 20c4.4 0 7.5 1.83 9.29 5.5 2.2-3.67 5.49-5.5 9.89-5.5z" style="height:auto;overflow-x:visible;overflow-y:visible;width:auto;perspective-origin:0px 0px;transform-origin:0px 0px;d:path(&quot;M 293.57 20 C 296.67 19.88 299.68 21.07 301.85 23.28 C 303.95 25.46 305 28.4 305 32.11 V 51 H 300.95 V 32.11 C 300.95 29.49 300.27 27.46 298.9 26.03 A 7.1 7.1 0 0 0 293.5 23.88 A 8 8 0 0 0 287.37 26.39 C 285.81 28.07 285.03 30.68 285.03 34.23 V 51 H 280.97 V 32.11 C 280.97 29.45 280.33 27.41 279.05 26 A 6.69 6.69 0 0 0 273.84 23.88 A 8.5 8.5 0 0 0 267.61 26.42 C 265.91 28.12 265.05 30.72 265.05 34.22 V 51 H 261 V 20.73 H 265.05 V 25.15 A 10.47 10.47 0 0 1 274.4 20 C 278.8 20 281.9 21.83 283.69 25.5 C 285.89 21.83 289.18 20 293.58 20 Z&quot;);"/>
    <path d="M311.3 28.65a3.67 3.67 0 001.93 3.25c1.45.88 3.04 1.54 4.7 1.96l5.51 1.5c1.79.48 3.4 1.42 4.66 2.72a7.06 7.06 0 011.9 5.14 7.6 7.6 0 01-3.26 6.34c-2.16 1.63-4.95 2.44-8.38 2.43-2.76.08-5.48-.6-7.85-1.96a10.6 10.6 0 01-4.51-5.07l3.6-2a7.24 7.24 0 003.23 3.75c1.67.95 3.6 1.43 5.54 1.38 1.83.07 3.64-.34 5.25-1.18a3.95 3.95 0 002.11-3.69c.03-1.34-.7-2.6-1.9-3.29a17 17 0 00-4.68-1.97l-5.52-1.5c-1.78-.48-3.4-1.4-4.68-2.69a6.82 6.82 0 01-1.92-5.05 7.69 7.69 0 013.13-6.22 12.16 12.16 0 017.86-2.5c2.4-.04 4.78.54 6.86 1.7a10.5 10.5 0 014.36 4.54l-3.55 1.95c-1.23-2.85-3.8-4.28-7.67-4.28a8.8 8.8 0 00-4.74 1.23 3.92 3.92 0 00-1.99 3.51z" style="height:auto;overflow-x:visible;overflow-y:visible;width:auto;perspective-origin:0px 0px;transform-origin:0px 0px;d:path(&quot;M 311.3 28.65 A 3.67 3.67 0 0 0 313.23 31.9 C 314.68 32.78 316.27 33.44 317.93 33.86 L 323.44 35.36 C 325.23 35.84 326.84 36.78 328.1 38.08 A 7.06 7.06 0 0 1 330 43.22 A 7.6 7.6 0 0 1 326.74 49.56 C 324.58 51.19 321.79 52 318.36 51.99 C 315.6 52.07 312.88 51.39 310.51 50.03 A 10.6 10.6 0 0 1 306 44.96 L 309.6 42.96 A 7.24 7.24 0 0 0 312.83 46.71 C 314.5 47.66 316.43 48.14 318.37 48.09 C 320.2 48.16 322.01 47.75 323.62 46.91 A 3.95 3.95 0 0 0 325.73 43.22 C 325.76 41.88 325.03 40.62 323.83 39.93 A 17 17 0 0 0 319.15 37.96 L 313.63 36.46 C 311.85 35.98 310.23 35.06 308.95 33.77 A 6.82 6.82 0 0 1 307.03 28.72 A 7.69 7.69 0 0 1 310.16 22.5 A 12.16 12.16 0 0 1 318.02 20 C 320.42 19.96 322.8 20.54 324.88 21.7 A 10.5 10.5 0 0 1 329.24 26.24 L 325.69 28.19 C 324.46 25.34 321.89 23.91 318.02 23.91 A 8.8 8.8 0 0 0 313.28 25.14 A 3.92 3.92 0 0 0 311.29 28.65 Z&quot;);"/>
</svg>